<svg width="400" height="400" viewBox="0 0 400 400" fill="none" xmlns="http://www.w3.org/2000/svg">
<path d="M366.454 160.001C364.724 160.057 363.084 160.784 361.881 162.027L248.601 276.481C248.027 277.054 245.747 278.081 243.294 278.081C240.841 278.081 238.681 277.094 238.174 276.561L184.841 220.867C180.761 216.601 175.294 215.214 170.067 215.227C164.867 215.227 159.427 216.641 155.307 220.787L28.6674 348.534C27.4244 349.793 26.7324 351.494 26.7437 353.263C26.7549 355.032 27.4685 356.724 28.7274 357.967C29.9863 359.21 31.6874 359.902 33.4565 359.891C35.2255 359.88 36.9177 359.166 38.1607 357.907L164.774 230.134C165.347 229.547 167.627 228.534 170.081 228.534C172.534 228.507 174.707 229.521 175.214 230.054L228.547 285.747C232.641 290.014 238.107 291.401 243.321 291.387C248.547 291.387 253.987 289.974 258.081 285.827L371.374 171.361C372.326 170.418 372.972 169.21 373.227 167.895C373.483 166.58 373.336 165.219 372.806 163.988C372.277 162.758 371.389 161.715 370.258 160.997C369.127 160.279 367.806 159.917 366.467 159.961L366.454 160.001ZM353.334 133.334C344.481 133.334 344.641 146.667 353.334 146.667H386.667V180.001C386.667 188.961 400.001 188.694 400.001 180.001V140.001C400.001 136.321 397.014 133.334 393.334 133.334H353.334ZM6.66736 0.000709506C2.98736 0.0540428 -0.0526421 2.98738 0.000691235 6.66738V393.334C0.000691235 397.014 2.98736 400.001 6.66736 400.001H393.334C402.347 400.134 402.347 386.534 393.334 386.667H13.334V6.66738C13.3874 2.90738 10.4274 -0.0526238 6.66736 0.000709506Z" fill="url(#paint0_linear_1_31)"/>
<defs>
<linearGradient id="paint0_linear_1_31" x1="64.5313" y1="75.2691" x2="322.597" y2="334.47" gradientUnits="userSpaceOnUse">
<stop stop-color="#E14DEE"/>
<stop offset="1" stop-color="#3F6CAF"/>
</linearGradient>
</defs>
</svg>
